<svg id="Layer_1" data-name="Layer 1" xmlns="http://www.w3.org/2000/svg" viewBox="0 0 1702.46 606.49"><defs><style>.cls-1,.cls-2,.cls-3,.cls-4,.cls-5,.cls-6,.cls-7{fill:#427bac;isolation:isolate;}.cls-1{opacity:0.75;}.cls-2{opacity:0.5;}.cls-3{opacity:0.25;}.cls-4{opacity:0.2;}.cls-5{opacity:0.3;}.cls-6{opacity:0.1;}.cls-7{opacity:0.4;}</style></defs><title>CircleWavesBottom</title><path id="Path_598" data-name="Path 598" class="cls-1" d="M327.09,270.36a16.91,16.91,0,1,0-19.67-13.61A16.93,16.93,0,0,0,327.09,270.36Z" transform="translate(-148.54 -80.32)"/><path id="Path_599" data-name="Path 599" class="cls-2" d="M259,223.87A14.8,14.8,0,1,0,241.83,212,14.79,14.79,0,0,0,259,223.87Z" transform="translate(-148.54 -80.32)"/><path id="Path_600" data-name="Path 600" class="cls-3" d="M201.57,171a12.69,12.69,0,1,0-14.76-10.2h0A12.68,12.68,0,0,0,201.57,171Z" transform="translate(-148.54 -80.32)"/><path id="Path_601" data-name="Path 601" class="cls-4" d="M161,101.29a10.57,10.57,0,1,0-12.3-8.5,10.56,10.56,0,0,0,12.3,8.5Z" transform="translate(-148.54 -80.32)"/><path id="Path_625" data-name="Path 625" class="cls-5" d="M1010.41,528.29a16.92,16.92,0,1,1,22.53-8,16.91,16.91,0,0,1-22.53,8Z" transform="translate(-148.54 -80.32)"/><path id="Path_626" data-name="Path 626" class="cls-5" d="M896.71,538.83a16.92,16.92,0,1,1,22.54-8.05,16.92,16.92,0,0,1-22.54,8.05Z" transform="translate(-148.54 -80.32)"/><path id="Path_624" data-name="Path 624" class="cls-4" d="M1128.28,563.81a16.92,16.92,0,1,1,22.54-8,16.92,16.92,0,0,1-22.54,8Z" transform="translate(-148.54 -80.32)"/><path id="Path_644" data-name="Path 644" class="cls-4" d="M814.94,563.81a16.92,16.92,0,1,1,22.53-8,16.91,16.91,0,0,1-22.53,8Z" transform="translate(-148.54 -80.32)"/><path id="Path_623" data-name="Path 623" class="cls-6" d="M1241.24,617.75a16.92,16.92,0,1,1,22.54-8,16.92,16.92,0,0,1-22.54,8Z" transform="translate(-148.54 -80.32)"/><path id="Path_645" data-name="Path 645" class="cls-6" d="M735.36,615.79a16.92,16.92,0,1,1,22.54-8,16.92,16.92,0,0,1-22.54,8Z" transform="translate(-148.54 -80.32)"/><path id="Path_622" data-name="Path 622" class="cls-6" d="M1336.89,669.94a16.92,16.92,0,1,1,22.53-8.06,16.9,16.9,0,0,1-22.53,8.06Z" transform="translate(-148.54 -80.32)"/><path id="Path_621" data-name="Path 621" class="cls-4" d="M1463.05,685.17a16.92,16.92,0,1,1,22.53-8,16.91,16.91,0,0,1-22.53,8Z" transform="translate(-148.54 -80.32)"/><path id="Path_620" data-name="Path 620" class="cls-5" d="M1627.69,674.66a16.92,16.92,0,1,1,22.53-8.06,16.91,16.91,0,0,1-22.53,8.06Z" transform="translate(-148.54 -80.32)"/><path id="Path_619" data-name="Path 619" class="cls-7" d="M1750.75,611a16.92,16.92,0,1,1,22.54-8,16.92,16.92,0,0,1-22.54,8Z" transform="translate(-148.54 -80.32)"/><path id="Path_618" data-name="Path 618" class="cls-2" d="M1826.83,560a16.92,16.92,0,1,1,22.54-8.06,16.93,16.93,0,0,1-22.54,8.06Z" transform="translate(-148.54 -80.32)"/></svg>