<svg id="Layer_1" data-name="Layer 1" xmlns="http://www.w3.org/2000/svg" viewBox="0 0 1557.29 366.54"><defs><style>.cls-1,.cls-2,.cls-3,.cls-4,.cls-5{fill:#427bac;}.cls-1{opacity:0.4;}.cls-1,.cls-2,.cls-3,.cls-4,.cls-5,.cls-6{isolation:isolate;}.cls-2{opacity:0.3;}.cls-3{opacity:0.2;}.cls-4,.cls-6{opacity:0.1;}.cls-5{opacity:0.5;}.cls-6{fill:#6ee8fc;}</style></defs><title>CircleWavesTop</title><path id="Path_608" data-name="Path 608" class="cls-1" d="M259.83,253A27.29,27.29,0,1,0,224,238.78,27.29,27.29,0,0,0,259.83,253Z" transform="translate(-221.71 -200.68)"/><path id="Path_609" data-name="Path 609" class="cls-2" d="M416.63,305.34a27.29,27.29,0,1,0-35.87-14.25,27.29,27.29,0,0,0,35.87,14.25Z" transform="translate(-221.71 -200.68)"/><path id="Path_610" data-name="Path 610" class="cls-3" d="M587.94,378.8a27.29,27.29,0,1,0-35.87-14.25,27.29,27.29,0,0,0,35.87,14.25Z" transform="translate(-221.71 -200.68)"/><path id="Path_611" data-name="Path 611" class="cls-4" d="M734.37,462.08a27.29,27.29,0,1,0-35.87-14.25,27.29,27.29,0,0,0,35.87,14.25Z" transform="translate(-221.71 -200.68)"/><path id="Path_612" data-name="Path 612" class="cls-4" d="M910,531.37a27.29,27.29,0,1,0-35.87-14.25A27.3,27.3,0,0,0,910,531.37Z" transform="translate(-221.71 -200.68)"/><path id="Path_613" data-name="Path 613" class="cls-3" d="M1113.29,565a27.29,27.29,0,1,0-35.87-14.25A27.29,27.29,0,0,0,1113.29,565Z" transform="translate(-221.71 -200.68)"/><path id="Path_614" data-name="Path 614" class="cls-2" d="M1310.69,561.42a27.29,27.29,0,1,0-35.87-14.25,27.29,27.29,0,0,0,35.87,14.25Z" transform="translate(-221.71 -200.68)"/><path id="Path_615" data-name="Path 615" class="cls-1" d="M1480.24,479.75a27.29,27.29,0,1,0-35.88-14.25,27.28,27.28,0,0,0,35.88,14.25Z" transform="translate(-221.71 -200.68)"/><path id="Path_616" data-name="Path 616" class="cls-5" d="M1638.29,387.74a27.29,27.29,0,1,0-35.88-14.25,27.28,27.28,0,0,0,35.88,14.25Z" transform="translate(-221.71 -200.68)"/><path id="Path_1839" data-name="Path 1839" class="cls-6" d="M1747.1,265.81a17.06,17.06,0,1,0,23.26-6.43,17.06,17.06,0,0,0-23.26,6.43Z" transform="translate(-221.71 -200.68)"/></svg>