<?xml version="1.0" encoding="utf-8"?>
<!-- Generator: Adobe Illustrator 23.0.2, SVG Export Plug-In . SVG Version: 6.00 Build 0)  -->
<svg version="1.1" id="Layer_1" xmlns="http://www.w3.org/2000/svg" xmlns:xlink="http://www.w3.org/1999/xlink" x="0px" y="0px"
	 viewBox="0 0 512 512" style="enable-background:new 0 0 512 512;" xml:space="preserve">
<style type="text/css">
	.st0{fill:#FFFFFF;}
</style>
<g>
	<path class="st0" d="M380,184c0-68.4-55.6-124-124-124s-124,55.6-124,124s55.6,124,124,124S380,252.4,380,184z M256,90.3
		c2.4,1.8,7.9,8.8,12.9,26c4.3,14.8,7.1,33.1,8,52.6H235c0.9-19.5,3.7-37.8,8-52.6C248.1,99.2,253.6,92.2,256,90.3z M277,199
		c-0.9,19.5-3.7,37.8-8,52.6c-5,17.2-10.6,24.2-12.9,26c-2.4-1.8-7.9-8.8-12.9-26c-4.3-14.8-7.1-33.1-8-52.6H277z M294.5,269.7
		c0.5-1.3,0.9-2.6,1.4-3.9c6.1-18.4,10-41.8,11.1-66.8h41.8C343.7,230.6,322.8,257,294.5,269.7z M348.8,169H307
		c-1.1-25.1-4.9-48.4-11.1-66.8c-0.4-1.3-0.9-2.6-1.4-3.9C322.8,111,343.7,137.4,348.8,169z M217.4,98.3c-0.5,1.3-0.9,2.6-1.4,3.9
		c-6.1,18.4-10,41.8-11.1,66.8h-41.8C168.3,137.4,189.2,111,217.4,98.3z M163.2,199H205c1.1,25.1,4.9,48.4,11.1,66.8
		c0.4,1.3,0.9,2.6,1.4,3.9C189.2,257,168.3,230.6,163.2,199z"/>
	<path class="st0" d="M0,512h512L372.7,377h-51.5l62.8-60.9c36.1-35,56-81.9,56-132.1C440,82.5,357.5,0,256,0S72,82.5,72,184
		c0,50.2,19.9,97.2,56,132.1l62.8,60.9h-51.5L0,512z M102,184c0-84.9,69.1-154,154-154s154,69.1,154,154c0,42-16.6,81.3-46.9,110.6
		L256,398.4L148.9,294.6C118.6,265.3,102,226,102,184z M221.7,407l34.3,33.2l34.3-33.2h70.3l77.4,75H74.1l77.4-75H221.7z"/>
</g>
</svg>
