<?xml version="1.0" encoding="iso-8859-1"?>
<!-- Generator: Adobe Illustrator 19.0.0, SVG Export Plug-In . SVG Version: 6.00 Build 0)  -->
<svg xmlns="http://www.w3.org/2000/svg" xmlns:xlink="http://www.w3.org/1999/xlink" version="1.1" id="Layer_1" x="0px" y="0px" viewBox="0 0 512 512" style="enable-background:new 0 0 512 512;" xml:space="preserve" width="512" height="512">
<g>
	<path d="M380,184c0-68.374-55.626-124-124-124s-124,55.626-124,124s55.626,124,124,124S380,252.374,380,184z M256,90.34   c2.381,1.838,7.902,8.83,12.933,26.044c4.324,14.798,7.092,33.089,8.035,52.616h-41.935c0.943-19.526,3.711-37.818,8.035-52.615   C248.098,99.17,253.62,92.178,256,90.34z M276.967,199c-0.943,19.527-3.711,37.818-8.035,52.616   c-5.03,17.214-10.552,24.206-12.933,26.044c-2.38-1.838-7.902-8.83-12.933-26.045c-4.324-14.797-7.092-33.089-8.035-52.615H276.967   z M294.55,269.727c0.464-1.267,0.923-2.56,1.372-3.909c6.146-18.441,9.976-41.757,11.074-66.818h41.802   C343.711,230.585,322.836,256.957,294.55,269.727z M348.798,169h-41.802c-1.098-25.061-4.928-48.378-11.074-66.818   c-0.449-1.348-0.909-2.641-1.372-3.909C322.836,111.043,343.711,137.415,348.798,169z M217.45,98.273   c-0.464,1.267-0.923,2.56-1.372,3.908c-6.146,18.441-9.976,41.757-11.074,66.818h-41.802   C168.289,137.415,189.164,111.043,217.45,98.273z M163.202,199h41.802c1.098,25.061,4.928,48.378,11.074,66.818   c0.449,1.348,0.909,2.641,1.372,3.908C189.164,256.957,168.289,230.585,163.202,199z"/>
	<path d="M0,512h512L372.712,377h-51.479l62.787-60.854C420.119,281.166,440,234.235,440,184C440,82.542,357.458,0,256,0   S72,82.542,72,184c0,50.236,19.881,97.167,55.98,132.146L190.767,377h-51.479L0,512z M102,184c0-84.916,69.084-154,154-154   s154,69.084,154,154c0,42.043-16.641,81.322-46.858,110.603L256,398.446L148.858,294.603C118.641,265.323,102,226.044,102,184z    M221.72,407L256,440.225L290.28,407h70.28l77.382,75H74.059l77.382-75H221.72z"/>
</g>















</svg>
